<svg width="117" height="120" viewBox="0 0 117 120" fill="none" xmlns="http://www.w3.org/2000/svg">
<path d="M0 10.9949C0 6.37465 3.74544 2.62921 8.36568 2.62921H46.8478C51.468 2.62921 55.2135 6.37465 55.2135 10.9949V49.477C55.2135 54.0972 51.468 57.8427 46.8478 57.8427H8.36568C3.74544 57.8427 0 54.0972 0 49.477V10.9949Z" fill="#456ECF"/>
<path d="M59.1573 68.8376C59.1573 64.2174 62.9027 60.4719 67.523 60.4719H106.005C110.625 60.4719 114.371 64.2174 114.371 68.8376V107.32C114.371 111.94 110.625 115.685 106.005 115.685H67.523C62.9027 115.685 59.1573 111.94 59.1573 107.32V68.8376Z" fill="#1CC0F3"/>
<path d="M61.7865 27.6067C61.7865 12.36 74.1465 0 89.3933 0C104.64 0 117 12.36 117 27.6067C117 42.8535 104.64 55.2135 89.3933 55.2135C74.1465 55.2135 61.7865 42.8535 61.7865 27.6067Z" fill="#E50161"/>
<path d="M48.7788 88.3023C52.0999 90.2479 52.0999 95.1117 48.7788 97.0572L11.4163 118.944C8.09521 120.89 3.94382 118.458 3.94382 114.567L3.94382 70.7925C3.94382 66.9015 8.09521 64.4695 11.4163 66.4151L48.7788 88.3023Z" fill="#FFC700"/>
</svg>
