<svg width="117" height="119" viewBox="0 0 117 119" fill="none" xmlns="http://www.w3.org/2000/svg">
<path d="M84.5237 73.7145L43.0841 32.0448M95.3769 62.801L53.9373 21.1313M106.23 51.8875L64.7906 10.2178M12.9911 62.3049C24.9792 50.2502 44.4158 50.2502 56.404 62.3049C68.3921 74.3597 68.3921 93.9042 56.404 105.959C44.4158 118.014 24.9792 118.014 12.9911 105.959C1.00297 93.9042 1.00297 74.3597 12.9911 62.3049ZM93.944 7.28765C98.3033 2.90412 105.371 2.90412 109.731 7.28765C114.09 11.6712 114.09 18.7783 109.731 23.1618C105.371 27.5454 98.3033 27.5454 93.944 23.1618C89.5847 18.7783 89.5847 11.6712 93.944 7.28765Z" stroke="url(#paint0_linear_2_74)" stroke-width="7"/>
<defs>
<linearGradient id="paint0_linear_2_74" x1="-10.8084" y1="136.152" x2="137.869" y2="-3.33515" gradientUnits="userSpaceOnUse">
<stop offset="0.204816" stop-color="#FF0078"/>
<stop offset="0.473943" stop-color="#8B00CF"/>
<stop offset="1" stop-color="#07CFCE"/>
</linearGradient>
</defs>
</svg>
